<?xml version="1.0" standalone="no"?>
<!DOCTYPE svg PUBLIC "-//W3C//DTD SVG 20010904//EN"
 "http://www.w3.org/TR/2001/REC-SVG-20010904/DTD/svg10.dtd">
<svg version="1.0" xmlns="http://www.w3.org/2000/svg"
 width="500.000000pt" height="500.000000pt" viewBox="0 0 500.000000 500.000000"
 preserveAspectRatio="xMidYMid meet">

<g transform="translate(0.000000,500.000000) scale(0.100000,-0.100000)"
fill="#000000" stroke="none">
<path d="M3185 3339 c-4 -5 -19 -15 -33 -21 -23 -10 -24 -12 -8 -16 16 -3 15
-6 -10 -23 -16 -10 -24 -19 -19 -20 110 -9 161 -28 218 -82 128 -122 92 -346
-67 -418 -26 -12 -65 -19 -106 -19 -41 0 -72 -6 -84 -15 -11 -8 -27 -13 -37
-10 -17 6 -47 -21 -35 -32 3 -3 6 -1 6 5 0 7 5 12 11 12 5 0 7 -4 4 -10 -3 -5
0 -10 7 -10 10 0 10 -2 -1 -9 -8 -5 -19 -7 -26 -5 -13 5 -67 -51 -58 -60 4 -3
5 -36 4 -72 -3 -105 -46 -176 -133 -220 -79 -40 -180 -29 -259 27 -14 10 -30
15 -34 11 -5 -4 -5 -1 -1 6 6 9 1 11 -18 8 -19 -3 -23 -1 -19 11 4 11 8 11 13
3 5 -8 10 -8 14 -2 3 5 -3 21 -14 33 -14 17 -18 19 -14 6 5 -13 2 -16 -10 -11
-9 3 -13 10 -10 15 12 19 -8 7 -37 -22 -25 -25 -37 -30 -72 -29 -70 3 -97 0
-97 -9 0 -5 9 -7 20 -4 11 3 33 0 50 -5 18 -7 30 -7 30 -2 0 14 43 6 48 -8 5
-16 -11 -15 -26 0 -21 21 -13 1 10 -25 37 -41 33 -107 -9 -157 -21 -26 -32
-30 -75 -30 -53 0 -108 28 -108 56 0 8 -4 14 -8 14 -10 0 -9 76 1 86 11 11 8
36 -3 29 -6 -4 -10 -3 -9 2 1 4 1 15 0 23 -1 13 -2 13 -11 0 -8 -12 -10 -9
-10 14 0 23 -3 27 -17 21 -34 -14 -61 -17 -78 -7 -20 11 -75 -12 -75 -31 -1
-7 -7 2 -15 18 l-13 30 -2 -30 c-2 -30 -2 -30 -10 -5 -7 23 -8 23 -9 3 -1 -12
-6 -25 -12 -29 -33 -20 -109 -252 -109 -333 l0 -34 68 7 c266 26 599 110 877
223 124 51 336 152 408 196 44 27 47 31 47 71 0 57 45 144 89 173 44 30 89 29
135 -2 21 -14 41 -23 46 -20 5 3 11 36 15 73 12 128 27 207 47 239 l19 33 -30
57 c-17 32 -53 87 -80 123 -59 79 -187 204 -200 196 -5 -4 -11 -1 -13 4 -5 15
-55 22 -63 9z m49 -10 c3 -3 -6 -5 -19 -5 -14 0 -25 4 -25 8 0 8 36 6 44 -3z
m-109 -839 c-3 -5 -10 -10 -16 -10 -5 0 -9 5 -9 10 0 6 7 10 16 10 8 0 12 -4
9 -10z"/>
<path d="M3540 3178 c0 -5 30 -7 68 -7 69 2 62 6 -20 11 -27 2 -48 0 -48 -4z"/>
<path d="M3590 3104 c0 -18 67 -87 98 -100 59 -24 82 -52 82 -97 0 -22 -8 -50
-19 -65 -10 -15 -22 -43 -26 -62 -13 -63 -41 -104 -136 -199 -63 -63 -79 -83
-49 -61 75 57 245 232 275 285 23 41 29 63 29 117 1 66 0 68 -39 104 -46 42
-61 48 -130 59 -27 4 -58 11 -67 16 -10 5 -18 7 -18 3z"/>
<path d="M1533 3038 c-58 -66 -81 -150 -48 -178 42 -35 125 48 125 126 0 23
-3 49 -6 58 -9 23 -47 20 -71 -6z"/>
<path d="M3940 2861 c0 -4 -10 -20 -22 -34 -13 -14 -35 -46 -50 -70 -39 -62
-145 -175 -249 -262 -77 -66 -283 -211 -364 -257 -53 -29 -289 -144 -345 -168
-30 -13 -68 -29 -85 -36 -160 -68 -452 -153 -669 -194 -134 -25 -375 -50 -493
-50 -194 0 -431 42 -509 91 -45 27 -52 20 -19 -20 36 -42 155 -98 245 -115
137 -26 320 -39 470 -33 247 10 416 41 770 142 44 12 192 66 300 108 30 12
124 56 207 98 179 90 300 168 463 296 73 58 244 231 286 289 70 98 109 206 79
218 -8 3 -15 2 -15 -3z"/>
<path d="M3459 2463 c-13 -16 -12 -17 4 -4 9 7 17 15 17 17 0 8 -8 3 -21 -13z"/>
<path d="M1981 2374 c0 -11 3 -14 6 -6 3 7 2 16 -1 19 -3 4 -6 -2 -5 -13z"/>
<path d="M1179 2353 c-13 -16 -12 -17 4 -4 9 7 17 15 17 17 0 8 -8 3 -21 -13z"/>
<path d="M1320 2329 c0 -75 60 -270 102 -331 23 -33 71 -48 156 -48 71 0 72 1
48 93 -32 122 -123 244 -218 291 -70 35 -88 34 -88 -5z"/>
<path d="M2190 2348 c0 -22 11 -28 31 -17 23 12 25 29 3 29 -9 0 -12 -5 -8
-12 5 -9 2 -9 -9 1 -15 11 -17 11 -17 -1z"/>
<path d="M1192 2260 c-18 -19 -44 -59 -59 -88 -51 -104 -14 -193 103 -246 29
-13 71 -27 95 -31 l44 -7 -35 37 c-40 42 -136 118 -163 128 -27 10 -19 68 11
83 41 20 51 45 44 104 l-7 54 -33 -34z"/>
<path d="M3510 2044 c-98 -67 -285 -178 -318 -189 -16 -4 -20 -15 -19 -53 1
-93 -79 -200 -198 -264 -56 -31 -67 -33 -155 -33 -86 0 -100 3 -142 27 -25 16
-58 42 -71 59 l-24 31 -49 -15 c-130 -40 -396 -93 -514 -102 -47 -4 -92 -9
-100 -11 -22 -8 83 -58 202 -97 91 -31 324 -74 335 -63 3 2 -3 16 -12 30 -39
59 9 98 142 116 119 16 273 -13 290 -56 3 -7 14 -14 25 -14 29 0 174 70 257
124 132 85 311 279 375 405 23 43 77 171 73 171 -1 0 -45 -30 -97 -66z"/>
<path d="M1706 2035 c4 -8 12 -15 20 -15 8 0 11 6 8 15 -4 8 -12 15 -20 15 -8
0 -11 -6 -8 -15z"/>
</g>
</svg>
